<svg xmlns="http://www.w3.org/2000/svg" viewBox="0 0 65.21 59.25"><defs><style>.cls-1{fill:#cccdcf;}</style></defs><title>Asset 16</title><g id="Layer_2" data-name="Layer 2"><g id="footer-icons"><path class="cls-1" d="M19.87,29.1c.17,1.17-1.89,4.16-2.52,5.06-4.47,6.47-7.19,11.27-11.62,17.77-1.22,1.81-2.45,3.62-3.65,5.45A1.06,1.06,0,0,0,2.74,59c3.63.46,9,.08,12.66,0,3.11,0,4.06-.28,6-2.78,1.52-2.61,3.17-5.12,4.69-7.72,2.68-4.6,6.08-9.35,8.79-13.93.63-1.06,1.25-2.12,1.89-3.18.92-1.54,1.72-2.83.4-4.37l-1.52-1.81C34,23.25,18.51,2.73,18.29,2.39,17.23.68,15.7.3,13.82.16A83.21,83.21,0,0,0,4.61.09C3.42.13-1,0,.2,2.37A23.32,23.32,0,0,0,2.91,6C6.64,10.85,16.15,23.42,17.18,24.8,17.45,25.17,19.71,28,19.87,29.1Z"/><path class="cls-1" d="M47.2,29.1c.18,1.17-1.88,4.16-2.51,5.06-4.48,6.47-7.2,11.27-11.62,17.77-1.23,1.81-2.45,3.62-3.66,5.45A1.07,1.07,0,0,0,30.07,59c3.64.46,9,.08,12.66,0,3.11,0,4.06-.28,6-2.78,1.52-2.61,3.16-5.12,4.68-7.72,2.69-4.6,6.08-9.35,8.79-13.93l1.89-3.18c.93-1.54,1.73-2.83.41-4.37L63,25.28c-1.69-2-17.15-22.55-17.36-22.89C44.57.68,43,.3,41.16.16A83.41,83.41,0,0,0,31.94.09c-1.18,0-5.58,0-4.41,2.28A24,24,0,0,0,30.24,6C34,10.85,43.48,23.42,44.51,24.8,44.78,25.17,47.05,28,47.2,29.1Z"/></g></g></svg>