<svg xmlns="http://www.w3.org/2000/svg" preserveAspectRatio="none" viewBox="0 0 1004.81 840.74"><defs><style>.cls-1{fill:#545152;}.cls-2{fill:#cccdcf;}</style></defs><title>Asset 1</title><g id="Layer_2" data-name="Layer 2"><g id="background"><g id="road"><path class="cls-1" d="M1004.81,840.74s-410.85-1.18-522.4-1.66l-320.57-1.37-138.54-.6S7,766.68,5.83,759.83c-7.25-41-12.51-92.72,14.66-127.74C33.35,615.51,48.13,599.63,64.22,590c36-21.52,72.51-43.32,110.39-57.1,84.13-30.61,169.32-55.92,253.92-84.25,46.57-15.6,92.94-32.37,139.13-49.9,11.6-4.4,22.78-12.46,33.05-21.19,15-12.7,14.63-27.25-.25-40.53-6.76-6-14.31-10.6-21.75-15.07-20.21-12.15-40.85-23.07-60.77-36-31.36-20.34-62.24-42.17-86.72-76.6-20.9-29.37-22.24-57.72-1.77-87.75C441,104.7,454.94,88.9,470.05,78.55,539.8,30.75,613.55,1.64,692.45,0c.46,0,.93.71,2.08,1.65-3.86,2.43-6.94,4.18-9.89,6.26C655.69,28.29,626.49,48.06,598,69.51c-9.64,7.25-18.34,17.71-26,28.6-12.73,18.14-10.67,34.64,5,47.65,5.47,4.54,11.37,8.77,17.5,11.11,41.9,16,83.65,32.94,126,46.66C775.74,221.46,832,234.37,885.3,262c32.54,16.88,64.41,35.84,89.54,69.85s27.68,72.35,5.46,109.83c-14,23.55-30.74,45.79-52.1,62.41-31.12,24.2-61.55,36.85-75.53,41.55C795.19,565,701.68,608.57,740.79,688c9.74,19.78,26.47,35.15,44.41,47.66,32.22,22.45,68.71,37,104.56,52.16C924.41,802.48,1004.81,840.74,1004.81,840.74Z"/><path class="cls-2" d="M444.36,834.58c-2.95-2.89-5.72-6.21-8.89-8.58-27.2-20.37-53-43.25-73.83-74.93C350,733.31,340.78,713.67,339,689.26c-.3-4.08-.17-8.22-.2-12.33-.05-7.57,2.24-12,9.21-13.19,6.17-1,17.62-3.1,22.84,1,3.29,2.59,2.09,15.27,3.07,23.4,2.54,21,11.45,37,22.39,51.2,21.89,28.43,48.14,47.75,75.67,64,15.55,9.19,31.6,16.87,47.38,25.36,3,1.64,5.93,3.87,8.88,5.83Z"/><path class="cls-2" d="M573.15,509.14c-29.72,12.59-59.57,24.62-89.13,37.93-32.7,14.73-64.42,32.62-92.23,61.55-2.44,2.54-6.19,3.62-9.35,3.84a82.63,82.63,0,0,1-16.32-.81c-4.49-.57-8.9-1.92-13.35-2.93,3.37-4.58,6.47-9.6,10.15-13.66,28.85-31.94,62.73-50.1,97.23-66.41,10.38-4.9,21.25-8.07,31.29-14C518.39,498.68,545.67,505,573.15,509.14Z"/><path class="cls-2" d="M579.81,483.92c25.5-12.22,48.81-22.24,71.45-34.54,28-15.24,55.31-33,83.35-48.24,7.14-3.88,15.91-2.36,23.95-3.17.82-.08,1.7.9,2.56,1.39-.61,1.42-1,3.35-1.87,4.18-5.06,4.66-9.93,10-15.44,13.39-36.45,22.57-72.36,47.24-109.93,65.75C618.69,490.17,599.76,483.92,579.81,483.92Z"/><path class="cls-2" d="M712.92,298.74c31.67-7.55,57.76,9.22,81.58,34.59,3.32,3.54,7,9,7.54,14.18.9,8.92,1.84,21.05-1.73,26.61-3.14,4.89-12.42,2.72-19,3.27-.34,0-1.53-4-1.18-5.7,3.84-18.77,3.13-27.56-9.18-37.4-15.34-12.27-32.23-21.07-48.51-31.2C719.41,301.21,716.1,300.17,712.92,298.74Z"/><path class="cls-2" d="M700.65,279.41c-33.39,8.67-60.78-16.82-90.68-28.32C643.17,242.91,670.34,270.11,700.65,279.41Z"/><path class="cls-2" d="M530.33,205.66c30.58-8.74,52.3,21,78.67,30.79C578.47,245.63,555.61,220.39,530.33,205.66Z"/><path class="cls-2" d="M536.19,192.68c-.3-.3-6.64,1.79-7.56,1.9a27.56,27.56,0,0,1-7.48-.06,31.46,31.46,0,0,1-13.68-5.91A65,65,0,0,1,496,177.48c-3-3.56-9.47-9.6-8.67-14.87s13.91-3.31,16.86-.91C515.3,170.76,525.42,182,536.19,192.68Z"/><path class="cls-2" d="M489,151.3c-9.95,0-12.69-4.37-12.19-18,.5-14.07,5.49-21.86,13.37-20.11,1.26.28,2.85,4,3,6.29.45,7.06-1.25,15.07.68,21.1C497.06,150.55,495.3,152.74,489,151.3Z"/><path class="cls-2" d="M569.85,45.72c1.39-3.8,7.91-4.68,11-6a149.19,149.19,0,0,0,13.81-6.88,3.17,3.17,0,0,1,1.68-.55c2.12.15,1.86,4.48.89,5.69-1.61,2-6.36,3.45-8.6,4.68-3.7,2-7.38,4.09-11.15,6-3.24,1.62-8.08,5.23-7.8-2A2.86,2.86,0,0,1,569.85,45.72Z"/><path class="cls-2" d="M609,26.88a.64.64,0,0,1,.27-.27c2.88-1.8,6.28-2.66,9.44-3.65a77.56,77.56,0,0,0,11.81-5c1.53-.77,5.53-2.12,4.76,1.47a4,4,0,0,1-1.81,2.13,30.31,30.31,0,0,1-5.32,2.57c-2.36,1.07-5.3,1.88-7.45,3.37-2.52,1.15-5,2.3-7.54,3.47-1.66.77-2.84,1.57-3.45-.91L609,27.27A.75.75,0,0,1,609,26.88Z"/><path class="cls-2" d="M644,13.53c.31-.66,3-1.28,3.6-1.51l4.79-1.78c1.71-.63,3.5-1.38,5.25-1.83,1.07-.28,1.18-.43,1.52.89a2.14,2.14,0,0,1-.21,2.11,7.23,7.23,0,0,1-2.29,1.14c-1.4.61-2.84,1.12-4.25,1.69-1.68.69-3.36,1.35-5,2a6,6,0,0,1-1.62.63c-1,0-1.22-1.54-1.57-2.32a1.65,1.65,0,0,1-.19-1S644,13.55,644,13.53Z"/><path class="cls-2" d="M536.33,68.06c.43-1.78,1.8-2.57,3.16-3.48,2.61-1.74,5.45-2.91,8.07-4.6,3.84-2.46,7.51-5.23,11.44-7.46a.8.8,0,0,1,.66-.14c.28.13.41.52.5.87l.81,2.91a6.34,6.34,0,0,1,.33,2.58c-.35,2.2-5.23,4.23-6.61,5.2-2.26,1.59-5.13,2.78-7.13,5-1.72,1.92-9.31,8.72-10.59,4.36a14.5,14.5,0,0,1-.77-3.8A5.51,5.51,0,0,1,536.33,68.06Z"/><path class="cls-2" d="M498.1,103.64c-3.93-5.87-1.75-10.07,8.68-17.91,4.29-3.22,10.61-8.11,13.77-9.23,4.75-1.7,5.5,1.74,6.59,5.15.29.91-1.88,4.06-3.53,5.51-5.11,4.46-11.78,8.22-15.53,12.94C501.85,107.94,499.52,108.21,498.1,103.64Z"/></g></g></g></svg>