<svg xmlns="http://www.w3.org/2000/svg" preserveAspectRatio="none" viewBox="0 0 639.07 848.33"><defs><style>.prefix__cls-2{fill:#cccdcf}</style></defs><g id="prefix__Layer_2" data-name="Layer 2"><g id="prefix__mobile-road"><g id="prefix__road"><path d="M631.08 848.11H23.92c1.54 0-19.7-121.17-20.72-129.84-6.2-52.9-4.79-108.65 17.17-158.34a199.85 199.85 0 0155.88-73.4q6.12-5 12.65-9.59c49.48-34.49 114.33-43.5 169.7-66.82 54.6-23 171.94-63.49 162.11-134.7-2.9-21.08-12.49-38.49-19.81-57.1-12.57-31.95-18.26-72.48-3.27-108 8.1-19.2 21.41-34.94 35.66-47.79 13.15-11.91 27.82-22.79 43.71-31.15 35.59-18.77 78.28-27.15 118.55-30.25q9-.69 18.05-1c10.73-.34 25.47 0 25.47 0s-8.29 4.17-10.7 5.4q-6.25 3.18-12.49 6.4c-17.18 8.89-34.76 18.15-51.82 27.63-16.16 9-32 19-44.43 32.52-6 6.53-14.52 15.77-18.65 27.91-6.65 19.52-.8 40.18 8.41 55 39.83 63.94 99.33 108.77 121.17 190 11.28 42 2.26 91.83-22.81 128.2-22.24 32.27-60.75 50.13-81.9 83.14-1.65 2.57-31.67 52.25-24.88 108.86 12.65 105.49 130.11 182.92 130.11 182.92z" fill="#3A3537"/><path class="prefix__cls-2" d="M247.06 848.33s-7.86-15.39-9.51-18.46c-14.18-26.36-27-55.53-34.91-94.59a270.57 270.57 0 01-5.43-59.46 267.37 267.37 0 012.43-30.56c.64-4.65 1.16-17.84 7.18-19.58 8.75-2.52 20 3.59 25.86 8.55 4.4 3.71 2 12.8.94 17.39-5.08 21.14-5.11 42.16-2.26 63.65a232.85 232.85 0 0019.34 66.8c5.92 12.82 13.65 24.78 21.9 36.32 4 5.65 24.37 29.94 24.37 29.94zM360.6 488.67c0 3.15-5.22 5.46-8.55 7-12 5.55-22.72 14.17-33.86 21-14.76 9.1-28.15 18.53-40.78 30.47-6.21 5.88-10.63 12.47-15.86 21-5.83 9.49-11.28 27.82-19 35.53-5.43 5.44-14 1.27-23.46-4.57-9.24-5.7 3.82-24 7.6-31.87 6.43-13.42 14-25.53 25.86-35.15q24.07-19.61 49.95-36.82c23.06-15.36 27.14-16.67 31.85-17 12.65-.92 26.23 5.33 26.25 10.41zM363.52 451.89c-.5-.13-.48-1.31 0-1.62 20.61-12.45 41.08-25.45 61.56-38.79q16.13-11 32.08-22.87c4.61-3.45 8.43-6.73 13.26-7.52 1.81-.3 5.6-1.29 8-.17 2.09 1 2.15 5.76.13 7.93-13.36 14.31-27.93 24.07-42 35.73a349.48 349.48 0 01-35.83 26.11c-7.67 4.88-13 7.73-20.27 6.23-5.67-1.2-11.23-3.5-16.93-5.03zM483.64 260.39c-.79-1.67.85-4.06 2.61-3.79a8.34 8.34 0 011.36.29 30.12 30.12 0 016.53 3 36 36 0 019 9.15c5.62 7.71 8.79 17.4 10.68 27.43 1.51 8.05 2.86 16.49 1.26 25.23a90.75 90.75 0 01-6.72 20.11c-3.74 8.28-21.65 29.4-28.18 14.34-1.21-2.79 4.37-8.09 6-9.93a56.8 56.8 0 0011.72-18.55c4.44-11.55 2.2-23-1.05-33.17a279.88 279.88 0 00-13.21-34.11zM462.35 198.53a1.78 1.78 0 011-2.18 15.71 15.71 0 017.17.35c7.33 2.24 10.21 10 13.28 17.22a253.93 253.93 0 0013.93 27.93 1.74 1.74 0 01-1 2.27 18 18 0 01-10.19-1.5c-5.7-2.78-8.28-8.29-10.95-14.18-5.39-11.98-9.68-21.7-13.24-29.91zM469.2 175.6a3.32 3.32 0 01-1.46 3.75 10.17 10.17 0 01-6.85.56c-2.07-.63-4.47-2.25-7.91-9.46-4.07-8.53-9.72-25.13-6-30.45a3.83 3.83 0 013.31-1.61c6.41 0 8.72 7 11.19 13.78 2.8 7.61 5.18 15.59 7.72 23.43zM450.56 128.09a10.69 10.69 0 01-4.27-5c-1.39-4.6 1.31-11.53 3.08-16.29 2-5.29 4.55-11.39 8.16-14.92 1.56-1.53 4.08-2.54 5.64-2 2.24.73 1.73 4.83.83 7.86-2.1 7-5.82 14.32-6.66 20.69-.34 2.56-.77 7.72-2.57 9.73-1.05 1.16-2.67.84-4.21-.07zM535.21 28.64a8.89 8.89 0 011.59-1.75c2.68-2.18 5.36-2.12 8.07-3 3.33-1.11 6.65-3.16 10-4.56 2.42-1 1.22 4.18-.09 5.65-1.71 1.92-4 2.18-5.91 3-3.22 1.37-6.41 3.17-9.63 4.6-1.27.56-3.68 2.34-4.68 1.12-1.17-1.44-.45-3.48.65-5.06zM566.27 16.64a2.12 2.12 0 01.86-.81 22.24 22.24 0 013-1.17 108 108 0 0113-3.75c1-.25 2.5.33 2 2.4-.66 2.74-5.8 3.94-7.4 4.49-3.19 1.11-6.36 2.42-9.47 2.36-1.01-.02-2.83-2.03-1.99-3.52zM593.82 8.91c.69-.94 2.88-.92 3.86-1.17l5.12-1.32a56.34 56.34 0 015.58-1.32c1.11-.17 1.25-.32 1.23 1.05a2.47 2.47 0 01-.75 2.1c-1.39 1.11-3.51 1.56-5 2.06a43.78 43.78 0 01-6.16 1.41c-1.12.2-3.19 1.38-3.86-.09a3.12 3.12 0 010-2.67zM504.26 44a7.39 7.39 0 013.24-3q5.26-2.82 10.57-5.41c2.44-1.19 4.94-3 7.47-3.3.28 0 .58 0 .74.21a1.25 1.25 0 01.12.73c-.12 6.45-2.13 7.2-6.7 9.24-1.92.86-16.87 12-16.59 6.85a12.51 12.51 0 011.15-5.32zM467.71 76c.14-2.31-.45-3.81.47-6.3a13.48 13.48 0 013.54-5 61.2 61.2 0 019.28-7.34c2.69-1.77 5.59-4.18 8.37-4.94 3.14-.86 4.38 4.86 1.76 8.26-4.18 5.43-9.56 7.71-14.27 11.74-2.36 2-9.65 11.69-9.15 3.58z"/></g></g></g></svg>