<svg xmlns="http://www.w3.org/2000/svg" preserveAspectRatio="none" viewBox="0 0 1001.83 837.35"><defs><style>.prefix__cls-2{fill:#cccdcf}</style></defs><g id="prefix__Layer_2" data-name="Layer 2"><g id="prefix__background"><g id="prefix__road"><path d="M1001.83 837.13c-60.72.39-931.68.18-977.86 0 0 0-16.26-70.43-17.47-77.28-6.29-35.61-13.14-82.49 6.32-115.21 19.61-33 53.66-57.74 86.62-76 55.18-30.53 114.46-50.42 174.05-70.7q82.29-28 165.76-52.38c50.77-14.81 104.37-31.45 150-58.86 7.47-4.48 14.91-9.62 19.39-17.09 13.51-22.51-13.21-38-29.29-47.66-20.21-12.15-40.84-23.07-60.77-36-31.36-20.34-62.24-42.17-86.72-76.6-11.2-15.74-18.68-33.48-15.73-53.14 2.22-14.79 9.15-28.56 17.89-40.7 27.54-38.23 70.85-59.95 112.2-79.94A356.6 356.6 0 01693.13 0c.45 0 .92.71 2.07 1.65-38.79 24.42-78.87 49-111 82.15-7.5 7.73-14.7 16.22-18 26.47-4.47 14 .77 26.49 11.52 35.65 19.81 16.9 48.88 23.75 72.87 32.57C728.15 207 812.42 224 886 262c32.54 16.88 64.41 35.84 89.54 69.86 37.82 51.2 14.33 109-26.31 150-47.05 47.47-106.31 61.9-162.66 93.84-35.1 19.89-63.74 55.72-51.28 97.89 11.16 37.79 48.72 62.21 80.92 80.84A894.75 894.75 0 00908 800.8c30.8 13.36 58.79 27.86 93.83 36.33z" fill="#3A3537"/><path class="prefix__cls-2" d="M445 837.35c-2.95-2.93-5.72-6.3-8.88-8.71-27.21-20.67-53-43.88-73.84-76-14.82-22.96-24.18-48.88-22.68-76.64.16-3.15.56-6.53 2.65-8.87 5.08-5.71 23.45-6.76 29.27-2.1 3.29 2.63 2.09 15.5 3.07 23.75 2.54 21.25 11.45 37.52 22.4 52 21.88 28.86 48.13 48.46 75.66 65 15.55 9.33 31.6 17.12 47.39 25.73 3.05 1.67 5.92 3.93 8.87 5.92zM582.59 521.52a1.37 1.37 0 01.31 2.57c-26.7 12.91-54.39 23.41-81.42 35.58a356 356 0 00-54.14 29.93 287.14 287.14 0 00-25.4 19.34c-7.36 6.28-14.07 14.45-24 16.62a34.26 34.26 0 01-26.91-5.15c-4-2.85 25.11-28.57 27.67-30.84 17.49-15.48 37.21-26.8 57.92-37.56 14.08-7.31 28.49-14 42.89-20.62 12.79-5.9 26.3-11.23 40.35-13.11s28.8.26 42.73 3.24zM584 483.27a.84.84 0 01-.24-1.61c31.86-13.66 63.39-27.85 94.87-42.37q24.72-11.9 49-24.71c7-3.71 12.74-7.2 20.58-8.29 3-.41 9-1.65 13.27-.7a4.42 4.42 0 011.64 7.83c-19.52 15-41.87 25.62-63 38.06a565 565 0 01-54.59 28.15c-11.81 5.33-20.18 8.5-32.43 7.49-9.79-.81-19.41-2.72-29.1-3.85zM701.74 299.72a2.79 2.79 0 01-.26-5 14.12 14.12 0 011.67-.72 49.73 49.73 0 019.32-2.05 56 56 0 0116.81 1.34c12.09 2.53 23.16 8.45 33.15 15.55 8 5.71 16.18 11.86 21.45 20.35 4.06 6.55 6.89 14.28 8.94 21.68 2.65 9.62.57 40-18.34 32-3.5-1.5-1.84-9.9-1.55-12.62.9-8.62.47-15.7-2.4-23.89-4.52-12.86-16.06-21-27.55-27.18a370.54 370.54 0 00-41.24-19.46zM693.77 276.5a1.37 1.37 0 01.1 2.41c-4.44 2.53-9.76 4.22-14.78 3.82-24.08-1.87-45.81-21.46-68.57-31.53-1.46-.65.33-2.61.33-2.61.3-.51 1.85-2.82 9.85-1.93 11.84 1.31 27.62 8.48 32.3 10.52 18.9 8.26 34.18 16.07 40.77 19.32zM533.09 207.27a1.31 1.31 0 01.26-2.33 33.19 33.19 0 0110.31-2c11.57-.35 19.9 5.77 28.25 11.39A390.09 390.09 0 00607 235.28a1.31 1.31 0 01-.19 2.41 39.79 39.79 0 01-15.19 1.94c-9.58-.69-16.28-4.88-23.29-9.39-14.24-9.17-25.67-16.64-35.24-22.97zM534.55 190.58a2.4 2.4 0 01-.68 3.86 21 21 0 01-9.78 2.08c-3.26-.13-7.39-1.13-15.21-7.16-9.24-7.13-23.91-21.53-20.52-27.39.65-1.13 2-1.92 4.22-2.27 9.34-1.46 15.42 4.64 21.66 10.49 7 6.56 13.57 13.56 20.31 20.39zM489.34 150.86c-3.31-.68-6.85-2.36-8.16-3.75-3.81-4-2.55-11.18-1.82-16.07.82-5.43 2.24-11.78 6.13-15.92a10.91 10.91 0 017.46-3.19c3.55.19 4.39 4.18 4.24 7.24-.35 7.06-2.94 14.83-1.71 21 .5 2.49 1.87 7.46 0 9.76-1.06 1.39-3.48 1.47-6.14.93zM573.38 46.08a8.08 8.08 0 011.64-2c3.07-2.66 7-3.21 10.61-4.67 4.43-1.8 8.47-4.48 12.77-6.55 3.13-1.52 3.4 3.67 2.05 5.36-1.75 2.19-5 3-7.46 4.13-4.17 2-8.13 4.45-12.28 6.51-1.64.82-4.47 3-6.4 2.12-2.19-1.07-1.93-3.16-.93-4.9zM610.21 27.94a2.22 2.22 0 01.94-1 36.89 36.89 0 014-1.79c5.64-2.6 11.64-4.43 17.49-6.46 1.32-.46 3.78-.25 3.85 1.82.1 2.73-7 5-9.07 5.9-4.22 1.76-8.34 3.72-12.91 4.36-1.51.23-4.95-1.24-4.3-2.83zM644.7 13.76c.45-1 2.66-1.18 3.57-1.52l4.79-1.78c1.71-.63 3.5-1.38 5.25-1.83 1.07-.28 1.18-.43 1.52.89a2.14 2.14 0 01-.21 2.11 7.23 7.23 0 01-2.29 1.14c-1.4.61-2.84 1.12-4.25 1.7-1.68.68-3.36 1.34-5.05 2-1.09.42-1.78 1-2.63-.08a3.14 3.14 0 01-.72-2.58s.01-.03.02-.05zM535.47 68.33a7.4 7.4 0 013.53-3.64q6.59-3.84 13.33-7.48c3.1-1.67 6-4 9.62-4.8a1.67 1.67 0 011.17 0 1.23 1.23 0 01.46.66c2.32 6.12-.32 7.28-6.2 10.23-2.48 1.25-20 15.14-21.56 10.2-.64-2.01-.89-3.68-.35-5.17zM498.77 103.86c-.68-2.21-2.12-3.5-1.75-6 .32-2.22 1.75-4 3.22-5.55a67.55 67.55 0 0110.68-9c3.23-2.28 6.53-5.21 10.3-6.55 4.25-1.52 8.27 3.61 5.76 7.4-4 6.06-11 9.43-16.28 14.3-2.63 2.37-9.52 13.16-11.93 5.4z"/></g></g></g></svg>