<svg xmlns="http://www.w3.org/2000/svg" preserveAspectRatio="none" viewBox="0 0 1001.83 837.35"><defs><style>.cls-1{fill:#3a3537;}.cls-2{fill:#cccdcf;}</style></defs><title>Asset 32</title><g id="Layer_2" data-name="Layer 2"><g id="background"><g id="road"><path class="cls-1" d="M1001.83,837.13c-60.72.39-931.68.18-977.86,0,0,0-16.26-70.43-17.47-77.28C.21,724.24-6.64,677.36,12.82,644.64c19.61-33,53.66-57.74,86.62-76,55.18-30.53,114.46-50.42,174.05-70.7q82.29-28,165.76-52.38c50.77-14.81,104.37-31.45,150-58.86,7.47-4.48,14.91-9.62,19.39-17.09,13.51-22.51-13.21-38-29.29-47.66-20.21-12.15-40.84-23.07-60.77-36-31.36-20.34-62.24-42.17-86.72-76.6-11.2-15.74-18.68-33.48-15.73-53.14,2.22-14.79,9.15-28.56,17.89-40.7,27.54-38.23,70.85-59.95,112.2-79.94A356.6,356.6,0,0,1,693.13,0c.45,0-76.8,50.68-108.92,83.8-7.5,7.73-14.7,16.22-18,26.47-4.47,14,.77,26.49,11.52,35.65,19.81,16.9,48.88,23.75,72.87,32.57C728.15,207,812.42,224,886,262c32.54,16.88,64.41,35.84,89.54,69.86,37.82,51.2,14.33,109-26.31,150-47.05,47.47-106.31,61.9-162.66,93.84-35.1,19.89-63.74,55.72-51.28,97.89,11.16,37.79,48.72,62.21,80.92,80.84A894.75,894.75,0,0,0,908,800.8C938.8,814.16,966.79,828.66,1001.83,837.13Z"/><path class="cls-2" d="M369.41,837.35q-5.58-9.17-11.08-18.39c-11.57-19.41-19.87-39.16-24.24-61.63-4.13-21.21-3.6-42.77,3.06-63.42a142.85,142.85,0,0,1,7.25-18c1.77-3.7,5.88-12,9.63-11.92,7,.06,30.29,5.9,40.07,7.35,5.84.87-.81,12.46-2,14.85C372,726.86,390.81,771.39,422,801.32c15.29,14.68,53.51,36,53.51,36Z"/><path class="cls-2" d="M583.15,533.72a1.68,1.68,0,0,1,.43,3.12c-11.83,6.33-47.21,25.19-66,34.19-18,8.64-38.49,21-55.67,31.48-18.85,11.45-35.28,22.72-50,37.73l-.17.16a6.31,6.31,0,0,1-1.35,1,8.71,8.71,0,0,1-5.12.69c-7.5-.86-32.33-4.35-37.4-6.63-4.11-1.87,19.75-19.07,22-20.66,23.67-16.94,51.38-32.25,77.67-46.57,24.8-13.5,73.78-35.15,84.75-40a7.4,7.4,0,0,1,4.57-.44Z"/><path class="cls-2" d="M580.12,510.94a2,2,0,0,1-.35-3.7c11.67-6,43.34-22.16,56.56-28.48,15.87-7.6,31.19-16.05,46.51-24.7,15.52-8.76,53.5-32.2,60.9-36.78a3.17,3.17,0,0,1,2.68-.31c4.38,1.46,19.62,5,20,6.51.57,2.41-16.57,11.54-24.78,17.32-5.31,3.75-10.79,7.26-16.35,10.65-10,6.13-20.28,11.86-30.31,18-11.92,7.24-25.29,14.75-37.27,21.9-8.34,5-17.43,9.71-25.9,14.48-4.58,2.58-17.12,9.08-22.52,11.87a7.06,7.06,0,0,1-5.26.48Z"/><path class="cls-2" d="M714.32,300a1.12,1.12,0,0,1,0-2c2.76-1.63,9.74-5.66,12.94-7.4,1.51-.82,11.34,4.44,13.09,5.2,29.26,12.73,71.89,41,61.27,76.41-1.92,6.4-5.25,12.27-8.83,17.87-1.6,2.51-6.45,10.54-10,13.79a4.24,4.24,0,0,1-4.31.89c-3.6-1.27-11.89-3.91-16.39-5.32a2.26,2.26,0,0,1-1.39-.84c-.51-.88.32-1.93,1.09-2.6,11-9.6,21.31-24.81,18.53-40.52-1.45-8.15-6.9-15.66-12.55-21.48C758.48,324.44,722.65,304.53,714.32,300Z"/><path class="cls-2" d="M708.17,277.88c1,.48,5.64,3,4.7,3.55-3,1.69-8.77,4.4-12,5.86a5.91,5.91,0,0,1-4.56.15c-4.59-1.74-15-5.81-22.11-9.44-8-4.1-15.88-8.45-23.81-12.7-7.51-4-25.44-12.48-25.85-13.37-.89-1.92,12.16-8.1,13.89-7.25,0,0,24.26,11.84,28.93,13.89C686.29,266.82,701.57,274.63,708.17,277.88Z"/><path class="cls-2" d="M548.67,208.1a1.31,1.31,0,0,1,.26-2.32c2-.73,6.94-2.78,9.42-3.82a3.6,3.6,0,0,1,3,.08c4.64,2.27,19.1,9.44,26.05,14.12,10.7,7.2,22.42,13.08,33.77,19.17.85.45,4.17,1.32,3.22,2.54-.31.4-6.77,4.65-10.09,5.65-1.47.45-6-1.15-7.45-1.79-5-2.32-17.47-8.11-22-11C570.49,221.51,558.24,214.44,548.67,208.1Z"/><path class="cls-2" d="M549.47,192.2c1.74,1.25-.84,2.39-2.75,3.37a66.42,66.42,0,0,1-7,2.29,5.05,5.05,0,0,1-4-.56,175,175,0,0,1-19.27-14.57c-5.45-5.14-12.42-9.3-16.09-15.83-.78-1.37-.55-3.37.84-4.12l5.85-3.8a2.84,2.84,0,0,1,3.43.56c2.92,3.1,9.52,10,14.25,14.47C529.68,178.65,543.9,188.22,549.47,192.2Z"/><path class="cls-2" d="M493.89,152.29a1.59,1.59,0,0,1-1.12.07c-1.51-.61-4.79-10-5.24-13.18a32,32,0,0,1,.35-10.1,63,63,0,0,1,7.18-18.72,3.61,3.61,0,0,1,1.9-1.83,2.55,2.55,0,0,1,.91-.14c1.85,0,5,1.71,6.75,2.76a1.89,1.89,0,0,1,.59.53,2.32,2.32,0,0,1,.26,1.73c-.56,3.48-2.9,6.94-4.1,10.24a27.06,27.06,0,0,0,.91,21.07,3.35,3.35,0,0,1,.44,2.1C502.32,148.65,495.19,151.82,493.89,152.29Z"/><path class="cls-2" d="M624.88,21.66a.87.87,0,0,1,.14-1.44c1.11-.69,21.86-8.59,24.22-9.38a1,1,0,0,1,.79.07l3.56,1.57a.74.74,0,0,1-.18,1.36c-3,1.12-9.81,3.84-11.43,4.47-3.86,1.5-7.61,3.24-11.46,4.76C628.78,23.75,626.46,22.28,624.88,21.66Z"/><path class="cls-2" d="M672.44,3.58l.17,0c.52,0,4,.83,3.38,1.33a12.12,12.12,0,0,1-2.3,1c-2.7,1.2-5.65,2-8.42,3.08-.91.37-1.82.74-2.76,1.06a6.22,6.22,0,0,1-2.33.52,1.41,1.41,0,0,1-.41-.07,16.11,16.11,0,0,1-3.83-1.71.42.42,0,0,1,.22-.72c2.92-.8,5.82-1.62,8.74-2.43l4.85-1.33A17.37,17.37,0,0,1,672.44,3.58Z"/><path class="cls-2" d="M510.39,101.2c-3.14.23-7.4-2.19-7.34-3.68.05-1.26,3-4.33,3.73-5.25a188.42,188.42,0,0,1,15.25-14c1.82-1.4,3.77-2.65,5.68-3.92,1.35-.89,2.69-2.4,4.27-2.86,1.4-.42,2.72.12,4.07.65.87.34,5.66,2.1,5.68,3.31,0,.67-11.83,8.78-15.44,11.63-3.86,3-7.11,6.7-10.59,10.13C514.15,98.73,512.77,101,510.39,101.2Z"/><path class="cls-2" d="M621.07,27.89a.72.72,0,0,0,0-1.17c-1.45-1-4.45-3-5.63-2.52-3.83,1.43-14.33,6-17.12,7.57-1.55.87-9.72,5.3-11.95,6.59-1.23.7,5.48,4.41,6.46,4.12a11.75,11.75,0,0,0,3.83-1.5c2.24-1.13,4.28-2.62,6.48-3.83C605.83,35.66,620.17,28.54,621.07,27.89Z"/><path class="cls-2" d="M583.36,49.23a.81.81,0,0,0,0-1.38c-2.2-1.37-7.07-4.25-8.4-3.6a198.59,198.59,0,0,0-17.78,10.81c-1.65,1.2-10.64,6.92-13,8.67-1.3,1,7.85,5.27,9.74,4.51,3.94-1.59,6.55-4.45,10-6.87,2.89-2,13-8.18,16.48-10.32C580.79,50.82,582.3,49.89,583.36,49.23Z"/></g></g></g></svg>